<svg height="686" width="720" xmlns="http://www.w3.org/2000/svg">
<rect height="686" fill="#555" width="720"></rect>
<text fill="#7f7" font-family="Courier New" font-size="12" xml:space="preserve">
<tspan x="10" y="26">18 megabytes installed</tspan>
<tspan x="10" y="42"></tspan>
<tspan x="10" y="58">node_modules</tspan>
<tspan x="10" y="74">└─┬ rc-slider@7.0.2 </tspan>
<tspan x="10" y="90">  ├─┬ babel-runtime@6.23.0 </tspan>
<tspan x="10" y="106">  │ ├── core-js@2.4.1 </tspan>
<tspan x="10" y="122">  │ └── regenerator-runtime@0.10.3 </tspan>
<tspan x="10" y="138">  ├── classnames@2.2.5 </tspan>
<tspan x="10" y="154">  ├─┬ prop-types@15.5.8 </tspan>
<tspan x="10" y="170">  │ └─┬ fbjs@0.8.12 </tspan>
<tspan x="10" y="186">  │   ├── core-js@1.2.7 </tspan>
<tspan x="10" y="202">  │   ├─┬ isomorphic-fetch@2.2.1 </tspan>
<tspan x="10" y="218">  │   │ ├─┬ node-fetch@1.6.3 </tspan>
<tspan x="10" y="234">  │   │ │ ├─┬ encoding@0.1.12 </tspan>
<tspan x="10" y="250">  │   │ │ │ └── iconv-lite@0.4.15 </tspan>
<tspan x="10" y="266">  │   │ │ └── is-stream@1.1.0 </tspan>
<tspan x="10" y="282">  │   │ └── whatwg-fetch@2.0.3 </tspan>
<tspan x="10" y="298">  │   ├── object-assign@4.1.1 </tspan>
<tspan x="10" y="314">  │   ├─┬ promise@7.1.1 </tspan>
<tspan x="10" y="330">  │   │ └── asap@2.0.5 </tspan>
<tspan x="10" y="346">  │   ├── setimmediate@1.0.5 </tspan>
<tspan x="10" y="362">  │   └── ua-parser-js@0.7.12 </tspan>
<tspan x="10" y="378">  ├─┬ rc-tooltip@3.4.3 </tspan>
<tspan x="10" y="394">  │ └─┬ rc-trigger@1.10.3 </tspan>
<tspan x="10" y="410">  │   ├── create-react-class@15.5.2 </tspan>
<tspan x="10" y="426">  │   ├─┬ rc-align@2.3.4 </tspan>
<tspan x="10" y="442">  │   │ └── dom-align@1.5.3 </tspan>
<tspan x="10" y="458">  │   └─┬ rc-animate@2.3.6 </tspan>
<tspan x="10" y="474">  │     └─┬ css-animation@1.3.2 </tspan>
<tspan x="10" y="490">  │       └─┬ component-classes@1.2.6 </tspan>
<tspan x="10" y="506">  │         └── component-indexof@0.0.3 </tspan>
<tspan x="10" y="522">  ├─┬ rc-util@4.0.2 </tspan>
<tspan x="10" y="538">  │ ├── add-dom-event-listener@1.0.2 </tspan>
<tspan x="10" y="554">  │ └─┬ shallowequal@0.2.2 </tspan>
<tspan x="10" y="570">  │   └─┬ lodash.keys@3.1.2 </tspan>
<tspan x="10" y="586">  │     ├── lodash._getnative@3.9.1 </tspan>
<tspan x="10" y="602">  │     ├── lodash.isarguments@3.1.0 </tspan>
<tspan x="10" y="618">  │     └── lodash.isarray@3.0.4 </tspan>
<tspan x="10" y="634">  └─┬ warning@3.0.0 </tspan>
<tspan x="10" y="650">    └─┬ loose-envify@1.3.1 </tspan>
<tspan x="10" y="666">      └── js-tokens@3.0.1</tspan>
</text>
</svg>
